<svg width="38" height="25" viewBox="0 0 38 25" fill="none" xmlns="http://www.w3.org/2000/svg">
<path d="M3.269 24H0.282136L8.92106 0.472728H11.862L20.5009 24H17.514L10.4834 4.19482H10.2996L3.269 24ZM4.37184 14.8097H16.4112V17.337H4.37184V14.8097ZM28.9905 24.4136C27.8723 24.4136 26.8575 24.203 25.9462 23.7817C25.0348 23.3528 24.311 22.7363 23.7749 21.9322C23.2388 21.1204 22.9708 20.1401 22.9708 18.9913C22.9708 17.9803 23.1699 17.1609 23.5682 16.5328C23.9664 15.8972 24.4987 15.3994 25.165 15.0394C25.8313 14.6795 26.5665 14.4114 27.3707 14.2353C28.1825 14.0515 28.9981 13.9059 29.8176 13.7987C30.8898 13.6609 31.7591 13.5575 32.4254 13.4885C33.0993 13.412 33.5895 13.2856 33.8958 13.1094C34.2098 12.9333 34.3668 12.627 34.3668 12.1904V12.0985C34.3668 10.965 34.0566 10.0843 33.4363 9.45629C32.8236 8.82828 31.8931 8.51428 30.6447 8.51428C29.3504 8.51428 28.3357 8.79764 27.6004 9.36438C26.8652 9.93112 26.3482 10.5362 26.0496 11.1795L23.4763 10.2604C23.9358 9.18823 24.5485 8.35344 25.3143 7.75607C26.0878 7.15104 26.9303 6.72982 27.8417 6.4924C28.7607 6.24733 29.6644 6.12479 30.5528 6.12479C31.1196 6.12479 31.7705 6.19372 32.5058 6.33157C33.2487 6.46177 33.9647 6.73365 34.654 7.14721C35.3509 7.56078 35.9292 8.18496 36.3887 9.01974C36.8482 9.85453 37.078 10.9727 37.078 12.3742V24H34.3668V21.6105H34.229C34.0452 21.9934 33.7388 22.4032 33.3099 22.8397C32.881 23.2763 32.3105 23.6477 31.5982 23.954C30.886 24.2604 30.0167 24.4136 28.9905 24.4136ZM29.404 21.9781C30.4762 21.9781 31.38 21.7675 32.1152 21.3463C32.8581 20.9251 33.4171 20.3813 33.7924 19.715C34.1753 19.0487 34.3668 18.3479 34.3668 17.6127V15.1313C34.2519 15.2692 33.9992 15.3955 33.6086 15.5104C33.2257 15.6176 32.7815 15.7134 32.276 15.7976C31.7782 15.8742 31.2919 15.9431 30.817 16.0044C30.3499 16.058 29.9708 16.104 29.6797 16.1423C28.9751 16.2342 28.3165 16.3835 27.7038 16.5903C27.0988 16.7894 26.6086 17.0919 26.2334 17.4978C25.8657 17.8961 25.6819 18.4398 25.6819 19.1291C25.6819 20.0711 26.0304 20.7834 26.7273 21.2659C27.4319 21.7407 28.3242 21.9781 29.404 21.9781Z" fill="#fff"/>
</svg>
