<svg xmlns="http://www.w3.org/2000/svg" width="105" height="106" viewBox="0 0 105 106" fill="none">
  <path d="M28.4062 2.18724L28.8235 0.75L29.6366 3.2838C33.4776 15.2928 42.9142 24.7147 54.9721 28.5792L57.6469 29.4416L57.4115 29.4948C43.9841 32.8484 33.3278 43.0049 29.3905 56.2169L28.8235 58.1225L28.5988 57.2708C24.8969 43.484 13.9303 32.8164 0 29.4416L2.4073 28.6964C15.0002 24.7785 24.7792 14.8137 28.4062 2.18724Z" fill="#FFA500"/>
  <path d="M56.3342 67.2941L56.6174 66.3188L57.1691 68.0382C59.7755 76.1871 66.1789 82.5806 74.3611 85.203L76.1761 85.7881L76.0164 85.8243C66.905 88.0999 59.6739 94.9918 57.0022 103.957L56.6174 105.25L56.4649 104.672C53.9529 95.3169 46.5113 88.0782 37.0586 85.7881L38.6921 85.2824C47.2373 82.6239 53.873 75.8621 56.3342 67.2941Z" fill="#FFA500"/>
  <path d="M90.3798 38.3509L90.5885 37.6323L90.995 38.8992C92.9155 44.9037 97.6339 49.6147 103.663 51.5469L105 51.9781L104.883 52.0047C98.1688 53.6815 92.8406 58.7598 90.872 65.3658L90.5885 66.3186L90.4761 65.8927C88.6252 58.9993 83.1419 53.6655 76.1768 51.9781L77.3804 51.6055C83.6768 49.6466 88.5663 44.6642 90.3798 38.3509Z" fill="#FFA500"/>
</svg>
